<svg width="18" height="18" viewBox="0 0 18 18" fill="none" xmlns="http://www.w3.org/2000/svg">
<path d="M5 14.5C5 14.733 5.37378 15 5.9 15H11V13.5C11 13.2239 11.2239 13 11.5 13H15.5C15.7761 13 16 13.2239 16 13.5V17.5C16 17.7761 15.7761 18 15.5 18H11.5C11.2239 18 11 17.7761 11 17.5V16H5.9C4.87982 16 4 15.3716 4 14.5V6H2.5C2.22386 6 2 5.77614 2 5.5L2 0.5C2 0.223858 2.22386 0 2.5 0H7.5C7.77614 0 8 0.223858 8 0.5V5.5C8 5.77614 7.77614 6 7.5 6H5V9H11V7.5C11 7.22386 11.2239 7 11.5 7H15.5C15.7761 7 16 7.22386 16 7.5V11.5C16 11.7761 15.7761 12 15.5 12H11.5C11.2239 12 11 11.7761 11 11.5V10H5V14.5Z" fill="#003E94"/>
</svg>
