<svg width="35" height="22" viewBox="0 0 35 22" fill="none" xmlns="http://www.w3.org/2000/svg">
<path d="M17.1515 2.96889L9.853 8.07721C8.84347 8.78253 8.5981 10.1705 9.30342 11.181C10.0087 12.1905 11.3967 12.4359 12.4072 11.7305L19.7057 6.62222C22.727 4.50627 26.9001 5.24147 29.0088 8.26282C31.1247 11.2842 30.3895 15.4572 27.3682 17.5659L25.0739 19.1694C26.9743 22.399 31.2732 21.04 33.2262 17.5732C35.2679 13.9497 35.1936 9.32487 32.6549 5.70141C29.1337 0.674577 22.1775 -0.550444 17.1515 2.96889Z" fill="#005AE1"/>
<path d="M17.5143 19.0272L24.8128 13.9189C25.8224 13.2136 26.0677 11.8256 25.3624 10.8152C24.6571 9.80562 23.2691 9.56026 22.2587 10.2656L14.9602 15.3739C11.9388 17.4898 7.76576 16.7547 5.65706 13.7333C3.54112 10.7119 4.27631 6.5389 7.29766 4.4302L9.59197 2.82672C7.69242 -0.401979 3.39353 0.957042 1.44056 4.42386C-0.601136 8.04731 -0.526892 12.6722 2.01188 16.2956C5.53121 21.3215 12.4875 22.5547 17.5143 19.0281V19.0272Z" fill="#005AE1"/>
</svg>
