<svg xmlns="http://www.w3.org/2000/svg" width="158" height="18" fill="none"><g clip-path="url(#a)"><path fill="#051E2D" d="M111.641 11.362c.304 1.143 1.233 1.628 2.38 1.628.844 0 1.563-.494 1.934-.996l1.63 1.175c-.793 1.178-1.978 1.848-3.598 1.848-2.835 0-4.624-1.992-4.624-4.574s1.806-4.574 4.455-4.574c2.498 0 4.27 2.027 4.27 4.574 0 .329-.033.624-.084.919h-6.363Zm-.033-1.733h4.303c-.27-1.247-1.181-1.75-2.093-1.75-1.164 0-1.957.641-2.21 1.75ZM62.166 11.362c.304 1.143 1.233 1.628 2.38 1.628.844 0 1.563-.494 1.934-.996l1.63 1.175c-.793 1.178-1.978 1.848-3.597 1.848-2.836 0-4.625-1.992-4.625-4.574s1.806-4.574 4.456-4.574c2.497 0 4.27 2.027 4.27 4.574 0 .329-.034.624-.085.919h-6.363Zm-.033-1.733h4.303c-.27-1.247-1.181-1.75-2.093-1.75-1.164 0-1.957.641-2.21 1.75ZM45.04 5.073a1.383 1.383 0 0 1-1.368-1.37c0-.744.623-1.385 1.367-1.385.745 0 1.386.641 1.386 1.386 0 .745-.623 1.369-1.386 1.369ZM46.165 6.112h-2.233v8.663h2.233V6.112ZM50.1 1.741h-2.234v13.034H50.1V1.74ZM57.526 6.112h2.458l-3.173 8.663h-2.544l-3.174-8.663h2.459l1.979 6.064 1.995-6.064ZM71.953 7.602c.45-1.178 1.54-1.664 2.632-1.664v2.495c-1.16-.138-2.632.381-2.632 2.2v4.141H69.72V6.111h2.233v1.49ZM77.703 8.572c0-.468.45-.71 1.004-.71.592 0 1.24.372 1.54.866l1.676-1.141c-.687-1.118-1.862-1.717-3.216-1.717-1.783 0-3.289.987-3.289 2.754 0 3.05 4.466 2.357 4.466 3.622 0 .502-.484.745-1.194.745-.836 0-1.542-.52-1.808-1.196l-1.796 1.222c.634 1.294 1.9 2 3.604 2 1.852 0 3.48-.9 3.48-2.772 0-3.188-4.467-2.39-4.467-3.673ZM88.178 8.26h-1.956v3.604c0 .935.675.953 1.956.883v2.027c-3.133.347-4.19-.572-4.19-2.91V8.26h-1.505V6.11h1.506v-1.75l2.233-1.543v3.293h1.956V8.26ZM91.578 7.602c.45-1.178 1.54-1.664 2.631-1.664v2.495c-1.16-.138-2.631.381-2.631 2.2v4.141h-2.233V6.111h2.233v1.49ZM96.536 5.073a1.383 1.383 0 0 1-1.367-1.37c0-.744.623-1.385 1.367-1.385.745 0 1.386.641 1.386 1.386 0 .745-.623 1.369-1.386 1.369ZM97.662 6.112h-2.233v8.663h2.233V6.112ZM104.284 5.87c2.32 0 4.224 1.992 4.224 4.574s-1.904 4.574-4.224 4.574c-1.263 0-2.181-.468-2.804-1.265v4.248h-2.233V6.112h2.233v1.023c.623-.797 1.541-1.265 2.804-1.265Zm-.415 7.016c1.386 0 2.407-.987 2.407-2.442 0-1.456-1.021-2.443-2.407-2.443-1.385 0-2.389.987-2.389 2.443 0 1.455 1.022 2.442 2.389 2.442ZM38.727 7.574c-1.87-.564-2.345-.97-2.345-1.729 0-.706.6-1.235 1.623-1.235 1.174 0 2.124.653 2.6 1.507l1.874-1.311c-.857-1.625-2.515-2.56-4.475-2.56-2.116 0-4.056 1.34-4.056 3.67 0 2.328 1.834 3.14 3.72 3.687 1.834.53 2.663.883 2.663 1.8 0 .688-.512 1.305-1.975 1.305s-2.47-.91-2.938-1.995l-1.921 1.344c.706 1.755 2.34 3.034 4.789 3.034 2.627 0 4.478-1.412 4.478-3.723 0-2.523-2.08-3.176-4.037-3.794ZM121.35 8.563c0-3.613 2.719-6.493 6.545-6.493 2.307 0 4.345 1.198 5.4 3.041l-1.448.84c-.716-1.377-2.236-2.272-3.953-2.272-2.932 0-4.899 2.13-4.899 4.884 0 2.755 1.967 4.867 4.899 4.867 1.717 0 3.237-.895 3.953-2.254l1.448.823c-1.037 1.842-3.075 3.059-5.4 3.059-3.827 0-6.545-2.898-6.545-6.494ZM146.708 14.825h-1.645V5.04l-4.095 6.816h-.215l-4.095-6.798v9.767h-1.663V2.302h1.878l3.987 6.62 3.97-6.62h1.878v12.523ZM148.318 11.98l1.431-.822c.447 1.377 1.52 2.272 3.344 2.272 1.824 0 2.646-.806 2.646-1.932 0-1.288-1.108-1.718-2.951-2.29-2.002-.644-3.934-1.27-3.934-3.596s1.842-3.542 3.934-3.542c2.093 0 3.542 1.162 4.239 2.737l-1.395.805c-.448-1.074-1.324-1.932-2.844-1.932-1.34 0-2.271.716-2.271 1.86 0 1.146.876 1.593 2.629 2.148 2.182.716 4.239 1.36 4.239 3.775 0 2.2-1.771 3.596-4.328 3.596-2.379 0-4.077-1.199-4.739-3.077v-.002Z"/><path fill="#005AE1" d="M14.481 1.697 8.318 6.012a1.882 1.882 0 0 0 2.157 3.086l6.163-4.315a5.638 5.638 0 0 1 7.855 1.386c1.786 2.552 1.166 6.077-1.385 7.858l-1.938 1.355c1.605 2.728 5.235 1.58 6.884-1.349 1.724-3.06 1.661-6.967-.483-10.028-2.972-4.246-8.846-5.28-13.09-2.308Z"/><path fill="#005AE1" d="m14.788 15.261 6.163-4.315a1.882 1.882 0 0 0-2.157-3.086l-6.162 4.315a5.638 5.638 0 0 1-7.855-1.385C2.99 8.238 3.61 4.713 6.162 2.93l1.937-1.354C6.494-1.15 2.865-.003 1.216 2.927c-1.724 3.06-1.66 6.966.483 10.027 2.971 4.245 8.845 5.287 13.09 2.308Z"/></g><defs><clipPath id="a"><path fill="#fff" d="M0 0h157.385v18H0z"/></clipPath></defs></svg>
