<svg width="22" height="22" viewBox="0 0 22 22" fill="none" xmlns="http://www.w3.org/2000/svg">
<path d="M11 1.83333C16.0545 1.83333 20.1667 5.9455 20.1667 11C20.1667 16.0545 16.0545 20.1667 11 20.1667C5.9455 20.1667 1.83333 16.0545 1.83333 11C1.83333 5.9455 5.9455 1.83333 11 1.83333ZM11 0C4.92525 0 0 4.92525 0 11C0 17.0748 4.92525 22 11 22C17.0748 22 22 17.0748 22 11C22 4.92525 17.0748 0 11 0ZM12.1458 15.5833C12.1458 16.2158 11.6334 16.7292 11 16.7292C10.3684 16.7292 9.85417 16.2158 9.85417 15.5833C9.85417 14.9508 10.3684 14.4375 11 14.4375C11.6334 14.4375 12.1458 14.9508 12.1458 15.5833ZM13.4227 6.4185C12.8654 5.85383 12.034 5.54308 11.0843 5.54308C9.086 5.54308 7.7935 6.96392 7.7935 9.16392H9.63692C9.63692 7.80175 10.3968 7.31867 11.0468 7.31867C11.6279 7.31867 12.2448 7.70458 12.2971 8.4425C12.3539 9.21892 11.9396 9.61308 11.4153 10.1118C10.1209 11.3428 10.0971 11.9387 10.1026 13.2907H11.9405C11.9286 12.6821 11.968 12.188 12.7976 11.2943C13.4182 10.6251 14.19 9.79275 14.2056 8.52408C14.2157 7.67708 13.9452 6.94833 13.4227 6.4185Z" fill="#003E94"/>
</svg>
