<svg width="22" height="22" viewBox="0 0 22 22" fill="none" xmlns="http://www.w3.org/2000/svg">
<path d="M11 0C4.92525 0 0 4.92525 0 11C0 17.0748 4.92525 22 11 22C17.0748 22 22 17.0748 22 11C22 4.92525 17.0748 0 11 0ZM18.1069 16.7796C17.8677 16.2424 17.3837 15.8712 16.3918 15.642C14.2899 15.1571 12.3328 14.7318 13.2816 12.9424C16.1645 7.49558 14.0452 4.58333 11 4.58333C7.89433 4.58333 5.82633 7.60742 8.71842 12.9424C9.69558 14.7428 7.66608 15.1672 5.60817 15.642C4.6145 15.8712 4.13417 16.2452 3.89675 16.7842C2.60883 15.2048 1.83333 13.1918 1.83333 11C1.83333 5.9455 5.9455 1.83333 11 1.83333C16.0545 1.83333 20.1667 5.9455 20.1667 11C20.1667 13.1899 19.3921 15.2011 18.1069 16.7796Z" fill="#003E94"/>
</svg>
